<svg xmlns="http://www.w3.org/2000/svg" viewBox="0 0 134.49 134.82"><g id="Layer_2" data-name="Layer 2"><g id="Layer_1-2" data-name="Layer 1"><path d="M42.19,8.56a3.57,3.57,0,0,0-.39.19,11.85,11.85,0,0,1-1.19.69,29.52,29.52,0,0,0-2.71,1.48c-1.43.82-2.82,1.72-4.21,2.6-.56.36-1.09.77-1.62,1.17-1.18.88-2.37,1.73-3.52,2.65-.87.7-1.68,1.49-2.52,2.24a1.53,1.53,0,0,0-.26.31.21.21,0,0,0,.16.31,1.29,1.29,0,0,0,.34,0c.2,0,.4-.08.61-.1,1.51-.09,3-.21,4.54-.25,1.95,0,3.9,0,5.85,0a4.66,4.66,0,0,0,.75,0,15.47,15.47,0,0,1,4.19,0,5.07,5.07,0,0,0,.55,0c1.08,0,2.16,0,3.23-.06a12.93,12.93,0,0,1,2.41,0h.34a.27.27,0,0,0,.21-.45,2.34,2.34,0,0,0-.4-.37,6.38,6.38,0,0,1-1.13-1c-.35-.42-.69-.85-1-1.28l-.31-.45q-.36-.55-.69-1.11c-.37-.61-.74-1.21-1.09-1.82a6.45,6.45,0,0,1-.77-1.61A3.22,3.22,0,0,1,43,10.37a8.1,8.1,0,0,0-.82-1.81m49.12,57.9v.05c.68-.1,1.37-.17,2-.29a.72.72,0,0,0,.56-1.13c0-.1-.13-.18-.19-.28l-.3-.61-.36-.74a3.2,3.2,0,0,1-.27-.56,2.77,2.77,0,0,0-.34-.74,3.22,3.22,0,0,1-.21-.51c-.06-.14-.1-.3-.17-.44-.54-1.12-1.1-2.22-1.62-3.34s-1.13-2.4-1.75-3.58-1.32-2.41-2.07-3.57a27.49,27.49,0,0,0-2.47-3.22c-.84-1-1.75-1.87-2.67-2.78a35.74,35.74,0,0,0-4.06-3.51c-.48-.35-1-.71-1.44-1.06-.34-.23-.6-.15-.76.24a3.93,3.93,0,0,0-.33,1.47c0,.39,0,.78,0,1.17a2.84,2.84,0,0,0,.23,1.35,3.53,3.53,0,0,1,.32,1.6,1.54,1.54,0,0,0,.23.92,2.71,2.71,0,0,1,.37,1,3.11,3.11,0,0,0,.22.65c.16.38.33.75.49,1.13a3.09,3.09,0,0,0,.14.32c.31.58.65,1.16.92,1.76a18.08,18.08,0,0,0,1,1.94,17.8,17.8,0,0,0,2,2.86,8.61,8.61,0,0,1,.58.77,14.39,14.39,0,0,0,1.81,2.16l1.94,2q2.17,2.16,4.36,4.31c.69.68.7.67,1.7.67h.07m-10-62.95h0c-.46,0-.68.28-.56.72a6.07,6.07,0,0,0,.31.69,5.67,5.67,0,0,1,.35.89,2.86,2.86,0,0,0,.39,1.09.62.62,0,0,1,.11.32,2.75,2.75,0,0,0,.46,1.21A14.6,14.6,0,0,0,83.11,10a1.17,1.17,0,0,1,.06.2c.11.25.22.5.34.75s.23.39.33.6a28.9,28.9,0,0,0,1.6,2.88c.69,1.14,1.44,2.24,2.06,3.42A7.93,7.93,0,0,0,89.06,20a1.39,1.39,0,0,0,1,.42c2.69,0,5.37,0,8.06,0a8.93,8.93,0,0,0,1-.08,9.48,9.48,0,0,1,2.13,0c.45,0,.91.09,1.37.1,1.4,0,2.8,0,4.2,0a5.12,5.12,0,0,1,1.36.16c.92.28,1.87.19,2.8.38a1.13,1.13,0,0,0,.47-.06.25.25,0,0,0,.11-.39,1.64,1.64,0,0,0-.31-.28c-.23-.18-.48-.35-.71-.54l-2.74-2.41a39.91,39.91,0,0,0-3.63-2.85c-.89-.65-1.83-1.23-2.74-1.84-.25-.16-.49-.35-.75-.5-1-.55-2-1.11-3-1.65a40.64,40.64,0,0,0-4.24-1.95l-2.11-.83c-1-.39-1.9-.8-2.86-1.18a2.5,2.5,0,0,1-1.12-.78,3.34,3.34,0,0,0-1.69-1.21,4.2,4.2,0,0,0-1.6-.33,2.17,2.17,0,0,1-1.26-.29,3.31,3.31,0,0,0-1.49-.33M66,21v0c.48,0,1-.07,1.44-.07s1,0,1.51.05a1.91,1.91,0,0,0,.48-.05.32.32,0,0,0,.15-.58,4,4,0,0,0-.34-.23,5.37,5.37,0,0,1-.66-.49,24.65,24.65,0,0,1-3.61-4A19.24,19.24,0,0,1,63.4,13a7.92,7.92,0,0,1-.73-1.69,2.88,2.88,0,0,1-.43-1.08,5.12,5.12,0,0,0-.3-.77,2.86,2.86,0,0,1-.33-1.18,2.53,2.53,0,0,0-.21-.86,3.14,3.14,0,0,1-.29-1.54c0-.75,0-1.51,0-2.27,0-.59-.39-.8-.86-.65a9.19,9.19,0,0,0-1.06.29,3.82,3.82,0,0,1-1.88.34,1.84,1.84,0,0,0-1,.17,3.69,3.69,0,0,1-1.78.46,1.75,1.75,0,0,0-.92.26,2.11,2.11,0,0,1-1.18.31,1.51,1.51,0,0,0-.85.23,2.4,2.4,0,0,1-1.1.37,2.44,2.44,0,0,0-1.1.37.88.88,0,0,1-.44.17,2.94,2.94,0,0,0-1.35.46c-.84.17-1.53.72-2.38.88a.33.33,0,0,0-.25.42,3.47,3.47,0,0,0,.17.45,5.57,5.57,0,0,1,.3.77,3.26,3.26,0,0,0,.5,1.34c.07.08.07.22.1.32a1.82,1.82,0,0,0,.14.39c.31.56.62,1.12.94,1.68a22.6,22.6,0,0,0,1.24,2c.66.94,1.26,1.92,1.89,2.88a1.78,1.78,0,0,0,.21.27l2.16,2.12a1.73,1.73,0,0,0,1.25.49c.48,0,1,0,1.45,0a3.48,3.48,0,0,1,1,.13,5.9,5.9,0,0,0,1.61.32l1.1.11a5,5,0,0,1,1.6.36,3.62,3.62,0,0,0,.86.22.69.69,0,0,0,.64-.19,1.24,1.24,0,0,1,1-.31c.94,0,1.88,0,2.83,0M85,20.64h1.09c.32,0,.43-.23.31-.53A1.46,1.46,0,0,0,86,19.6a5.52,5.52,0,0,1-.89-.85c-1-1.41-2-2.85-2.93-4.33-.15-.25-.34-.49-.47-.76a15.73,15.73,0,0,1-1-1.82,1.94,1.94,0,0,0-.22-.43A1.9,1.9,0,0,1,80.3,11a5.39,5.39,0,0,0-.52-1.27,2.07,2.07,0,0,1-.21-.57A3,3,0,0,0,79.2,8a1.08,1.08,0,0,1-.11-.47,11.32,11.32,0,0,0-.29-2.39,2,2,0,0,1,.06-1A2.65,2.65,0,0,0,79,3.63a.59.59,0,0,0-.64-.71L78,3a6.26,6.26,0,0,1-2.78-.3,2.67,2.67,0,0,0-.87-.19,26.57,26.57,0,0,1-2.68-.12h-.14c-1.42,0-2.84,0-4.27,0-1,0-2.06.08-3.09.12a1.17,1.17,0,0,0-.27,0,5.09,5.09,0,0,0-.76.32.52.52,0,0,0-.22.66,1,1,0,0,0,.15.31,2.41,2.41,0,0,1,.41,1.43,1.43,1.43,0,0,0,.24.85,1.79,1.79,0,0,1,.31,1,1.55,1.55,0,0,0,.19.72c.18.39.33.8.49,1.21a10.59,10.59,0,0,1,.6,1.66l0,.06c.39.78.75,1.57,1.17,2.34a23.29,23.29,0,0,0,1.36,2.31,22.61,22.61,0,0,0,2.5,3.1c.63.64,1.28,1.26,1.9,1.9a1.65,1.65,0,0,0,1.31.46c2.48,0,5,0,7.44-.05q1.2,0,2.4-.06c.58,0,1.15-.09,1.59-.13M29.33,118a.62.62,0,0,0-.29-.51,21.47,21.47,0,0,1-2.27-3c-.39-.51-.68-1.08-1-1.62-.64-1-1.24-2-1.79-3-.85-1.6-1.65-3.23-2.46-4.85-.18-.34-.37-.69-.53-1-.28-.65-.53-1.32-.84-2a4,4,0,0,1-.48-1.2,2.2,2.2,0,0,0-.15-.31c-.12-.27-.24-.54-.35-.82a8.41,8.41,0,0,0-.35-.82A2.52,2.52,0,0,1,18.5,98a1.73,1.73,0,0,0-.33-.9,1.11,1.11,0,0,1-.19-.65,2.9,2.9,0,0,0-.35-1.25,2.48,2.48,0,0,1-.33-1.38,2.83,2.83,0,0,0-.3-1.4,3,3,0,0,1-.26-1.14c0-.55-.07-1.1-.12-1.64a4.33,4.33,0,0,0-.19-1A4.44,4.44,0,0,1,16.17,87a14.59,14.59,0,0,0-.1-2.47,5.3,5.3,0,0,1,0-.69c.05-1.42.09-2.85.14-4.27a1.87,1.87,0,0,1,.19-.87,3.74,3.74,0,0,0,.4-1.86A1.39,1.39,0,0,1,17,76a2.11,2.11,0,0,0,.34-.82.81.81,0,0,1,.34-.51,1.61,1.61,0,0,0,.23-.22c-.12-.29-.35-.25-.54-.22a4.91,4.91,0,0,1-1.38,0,6.55,6.55,0,0,0-.89,0H7.24c-.55,0-1.1,0-1.65,0s-.8.23-.57.81a4.35,4.35,0,0,1,.29,1.55l0,.62c.11,1.54.61,3,.82,4.54a4.75,4.75,0,0,0,.14.46c.1.4.18.8.27,1.21a7.73,7.73,0,0,0,.16.81c.37,1.22.8,2.43,1.06,3.69a2.13,2.13,0,0,0,.11.33c.15.43.3.86.46,1.29.08.24.16.48.26.71.3.75.62,1.49.92,2.23s.47,1.24.75,1.84c.5,1.06,1,2.12,1.54,3.16a46,46,0,0,0,2.74,4.77c1,1.54,2.07,3.09,3.22,4.55s2.32,2.79,3.56,4.12a79,79,0,0,0,5.93,5.65c.51.44,1,.86,1.54,1.27.14.11.28.26.51.17M68.45,22.62a5,5,0,0,0-.63.15.28.28,0,0,0-.13.21.28.28,0,0,0,.15.21,4.56,4.56,0,0,0,.53.13,7,7,0,0,1,.93.24,4.32,4.32,0,0,0,1.1.37,1.23,1.23,0,0,1,.45.17,2.48,2.48,0,0,0,1,.41,1.42,1.42,0,0,1,.33.11L74,25.5c1,.49,2,1,2.95,1.49a25.42,25.42,0,0,1,2.66,1.57c.49.34,1,.64,1.5,1,.29.19.55.41.82.62s.6.51.91.74A26.18,26.18,0,0,1,87,34.82c1.32,1.55,2.69,3.07,3.9,4.72.77,1.06,1.59,2.08,2.38,3.12.06.07.11.15.17.21a.3.3,0,0,0,.48,0,3.48,3.48,0,0,0,.22-.43c.34-.78.53-1.61.92-2.37s.6-1.34.92-2a23.5,23.5,0,0,1,1.52-2.62,11.92,11.92,0,0,1,2.81-2.9,28.41,28.41,0,0,1,4.16-2.43A23.6,23.6,0,0,0,107,28.74a3.11,3.11,0,0,0,.9-.83,10.72,10.72,0,0,1,1.39-1.62c.61-.59,1.23-1.17,1.85-1.75a2.62,2.62,0,0,0,.28-.3.44.44,0,0,0-.26-.71,3.84,3.84,0,0,0-.68-.09l-1.51-.08a7.7,7.7,0,0,0-1,0,17.47,17.47,0,0,1-4.39-.33,10.32,10.32,0,0,0-1.84-.16H89.21c-2.32,0-4.64,0-7,0s-4.68.15-7-.08a.42.42,0,0,0-.3.12c-.1.13,0,.27.06.38a2.73,2.73,0,0,0,.34.34l1,.9a.47.47,0,0,1,.21.48.5.5,0,0,1-.47.35,1.29,1.29,0,0,1-.34,0,1.84,1.84,0,0,1-.93-.42,3.09,3.09,0,0,0-.66-.48A6.54,6.54,0,0,1,72.37,23a1.06,1.06,0,0,0-.93-.34c-.68,0-1.37,0-2.06,0-.28,0-.55-.05-.93-.09m-49.28,42h6a1.91,1.91,0,0,0,.48-.05.32.32,0,0,0,.2-.53,3.55,3.55,0,0,0-.4-.47,8.18,8.18,0,0,1-1.49-2,1.73,1.73,0,0,0-.25-.41,3.61,3.61,0,0,1-.52-.81c-.41-.77-.85-1.51-1.23-2.3a21.88,21.88,0,0,1-1.17-2.56,2.2,2.2,0,0,0-.15-.31c-.09-.19-.17-.37-.25-.56L20,53.76a2.6,2.6,0,0,1-.25-.57,5,5,0,0,0-.5-1.41,2.42,2.42,0,0,1-.2-.59A18.59,18.59,0,0,1,18.38,49a.69.69,0,0,0-.05-.13,4.5,4.5,0,0,1-.45-1.29,9.84,9.84,0,0,0-.36-1,2.86,2.86,0,0,1-.23-1A7,7,0,0,0,17,43.94a5.66,5.66,0,0,1-.21-1c-.09-.77-.17-1.55-.23-2.33a6.53,6.53,0,0,1,0-1.17c.09-1,.2-2,.31-2.94,0-.18.09-.36.12-.54a10.62,10.62,0,0,0,.24-1.35,4,4,0,0,1,.44-1.51,4.72,4.72,0,0,0,.36-1.1c.07-.29-.09-.45-.37-.43l-.35.05c-.25,0-.5.07-.75.07-.81,0-.81-.06-1.38.77l-.17.3-.41.72c-.66,1.12-1.38,2.22-2,3.38a30,30,0,0,0-1.45,3,18.38,18.38,0,0,0-1.13,2.57,1.08,1.08,0,0,1-.08.19c-.31.72-.63,1.43-.91,2.16-.44,1.11-.7,2.27-1.21,3.36-.07.83-.52,1.56-.65,2.38a4.11,4.11,0,0,1-.17.67,9.19,9.19,0,0,0-.51,2.13,2.41,2.41,0,0,1-.16.6A6.27,6.27,0,0,0,6,55.34a9.62,9.62,0,0,1-.27,1.42,11.06,11.06,0,0,0-.44,2.85A6.75,6.75,0,0,1,5.13,61,6.05,6.05,0,0,0,5,62.68a5.31,5.31,0,0,1-.19,2,1.23,1.23,0,0,0,0,.54.42.42,0,0,0,.58.4l.26-.11a1.71,1.71,0,0,1,.86-.18l3.58,0A3.62,3.62,0,0,0,11.36,65a6.39,6.39,0,0,1,2.37-.4h5.44M20.9,40.35h0c0,.73,0,1.47,0,2.2,0,1,.06,1.93.09,2.89a6.55,6.55,0,0,0,.29,1.76c.14.44.21.89.33,1.34a5.67,5.67,0,0,0,.29.91,2.33,2.33,0,0,1,.24.92,2.22,2.22,0,0,0,.26.92,4.94,4.94,0,0,1,.3.84,4.39,4.39,0,0,0,.47,1.36.87.87,0,0,1,.11.32,3.71,3.71,0,0,0,.44,1.3,1.75,1.75,0,0,1,.2.51c.15.67.58,1.25.67,1.94a.82.82,0,0,0,.12.25c.32.66.68,1.3.95,2,.4,1,1,1.85,1.45,2.8a1.12,1.12,0,0,0,.16.22l.81.94a1.64,1.64,0,0,0,1.47.57,36,36,0,0,1,4.41,0c.37,0,.73,0,1.1.1a15.84,15.84,0,0,0,2.67.19c1.33,0,2.67,0,4,0a3.68,3.68,0,0,1,1.6.34,2,2,0,0,0,.73.19,13.82,13.82,0,0,0,1.58.06,2.33,2.33,0,0,1,1.19.26,2,2,0,0,0,.5.22.38.38,0,0,0,.3-.09s0-.19,0-.25a8.34,8.34,0,0,0-.67-.78,6.78,6.78,0,0,1-1.09-1.24c-.48-.78-1-1.56-1.43-2.34a3.7,3.7,0,0,0-.29-.47,9.11,9.11,0,0,1-.89-1.62c-.29-.62-.65-1.21-.9-1.85a25,25,0,0,1-1.12-2.79A1.73,1.73,0,0,0,41,54c-.3-.74-.6-1.48-.91-2.22,0,0,0,0,0-.07a4.18,4.18,0,0,0-.45-1.22,8,8,0,0,0-.35-1.25,3.49,3.49,0,0,1-.2-.44,1.14,1.14,0,0,1-.16-.38A17.66,17.66,0,0,0,38.26,46a4.27,4.27,0,0,0-.33-1,3,3,0,0,1-.24-.93A3,3,0,0,0,37.38,43a3.06,3.06,0,0,1-.24-.78,7.84,7.84,0,0,0-.48-1.72,2.9,2.9,0,0,1-.22-1,63.14,63.14,0,0,1,0-6.74,2.11,2.11,0,0,1,.41-1.29,1.12,1.12,0,0,0,.13-.24c.24-.55,0-.92-.62-.85h-.07a13.94,13.94,0,0,1-2.74.2c-1,0-2.07,0-3.1,0s-2,.07-3,.08a5.7,5.7,0,0,0-1.16.11,9.91,9.91,0,0,1-2.66.28H22.43c-.77,0-.87.11-.87.89a7.79,7.79,0,0,1-.33,2.24,4.34,4.34,0,0,0-.16,1.08c-.07,1.68-.12,3.35-.17,5M68,71.36a2.15,2.15,0,0,0-1.19.18,1.62,1.62,0,0,1-1,.23,1,1,0,0,0-.34,0c-.07,0-.18.11-.18.17a.48.48,0,0,0,.11.3c.05.07.15.09.24.13.3.16.61.3.91.47.84.48,1.64,1,2.43,1.57.48.35,1,.69,1.46,1l1.28.93.78.57,1.79,1.41c.43.34.84.7,1.27,1s.57.47.87.67a17.74,17.74,0,0,1,2.13,1.64c.3.28.64.52,1,.78.52.41,1.07.79,1.56,1.24,1.11,1,2.2,2.08,3.3,3.12.19.18.36.36.53.55L87,89.66a13.41,13.41,0,0,1,1.51,1.69,1.07,1.07,0,0,0,.14.16.39.39,0,0,0,.65,0,2.27,2.27,0,0,0,.34-.51,26,26,0,0,1,2-3.34A15.92,15.92,0,0,1,93,85.8c.7-.82,1.46-1.59,2.23-2.35a13.23,13.23,0,0,1,1.54-1.26A20.93,20.93,0,0,1,100.47,80c.73-.31,1.48-.61,2.22-.9a4.11,4.11,0,0,1,.61-.12,3.11,3.11,0,0,0,.67-.16,3.54,3.54,0,0,1,1.4-.28,7.49,7.49,0,0,0,2-.26,7.43,7.43,0,0,1,1.86-.45.89.89,0,0,0,.76-.53c.21-.43.43-.86.63-1.29a18.34,18.34,0,0,1,1.9-3.34c.53-.7,1-1.42,1.57-2.1A24.31,24.31,0,0,1,117,67.67c.25-.22.32-.38.22-.51a.44.44,0,0,0-.5-.14,8.2,8.2,0,0,1-1.92.12l-4.41,0a7,7,0,0,0-1.77.19,14,14,0,0,1-3.35.37c-1.58,0-3.17,0-4.75,0-.58,0-1.15,0-1.72.06a7.85,7.85,0,0,1-1,0c-.67-.06-.67-.07-.89.62,0,.06,0,.14-.07.19s-.2.27-.34.31a1.13,1.13,0,0,1-1.22-.22l-.23-.25a.65.65,0,0,0-.68-.22,4.78,4.78,0,0,1-.75.08c-1.45,0-2.89,0-4.34.08a3.84,3.84,0,0,0-1.46.33,3,3,0,0,1-1.41.28c-.32,0-.64,0-1,0-.76,0-1.52,0-2.27.07a1.86,1.86,0,0,0-.67.14,3.27,3.27,0,0,1-1.35.25,18,18,0,0,0-2.74.12,3.71,3.71,0,0,0-1.2.3,2.62,2.62,0,0,1-1.2.25H74.6a3,3,0,0,0-1.34.24,4,4,0,0,1-2,.34,3.38,3.38,0,0,0-1.73.36,2.82,2.82,0,0,1-1.61.38m-49.08,3c0,.28.22.38.33.55a1.24,1.24,0,0,1,.18,1.29,3,3,0,0,0-.23,1.14,4.26,4.26,0,0,1-.34,1.54,2.69,2.69,0,0,0-.18.73c0,.8-.09,1.61-.11,2.41s0,1.42,0,2.14c0,.2,0,.41,0,.62,0,.52,0,1,.08,1.58a3.82,3.82,0,0,0,.13,1,7.5,7.5,0,0,1,.34,2.3,4.32,4.32,0,0,0,.32,1.75,3.6,3.6,0,0,1,.26,1.41,2.21,2.21,0,0,0,.24,1.07,4.16,4.16,0,0,1,.45,1.58,1.42,1.42,0,0,0,.26.77,1.78,1.78,0,0,1,.27.77,1.79,1.79,0,0,0,.18.66,5.36,5.36,0,0,1,.51,1.27,2.84,2.84,0,0,0,.23.5,1.41,1.41,0,0,1,.18.37,5.91,5.91,0,0,0,.52,1.34,10.27,10.27,0,0,0,.65,1.44,1.52,1.52,0,0,1,.12.32c.08.19.16.38.25.56s.23.45.34.68l1,2.1c.07.14.15.28.22.43.24.49.45,1,.72,1.47.58,1.07,1.2,2.12,1.78,3.18.49.91,1.15,1.71,1.69,2.59a1.18,1.18,0,0,0,.17.22,24.54,24.54,0,0,0,3,3c.44.33.88.67,1.33,1l3,2.12.18.1c.35.25.73.47,1.06.75a6.72,6.72,0,0,0,1.12.8l1.07.62a2.44,2.44,0,0,0,.43.21,1.51,1.51,0,0,1,.65.37.6.6,0,0,0,.63.17,2,2,0,0,1,.48,0,.59.59,0,0,1,.57.41.63.63,0,0,1-.23.74,4.06,4.06,0,0,1-.41.25,1.33,1.33,0,0,0-.33.24.39.39,0,0,0,.08.64,2.62,2.62,0,0,0,.39.15l2.37.89.18.1.45.17,1.64.54a1.15,1.15,0,0,0,.33.09,6,6,0,0,1,1.64.49,3.26,3.26,0,0,0,1.5.27.88.88,0,0,0-.53-.71,6.27,6.27,0,0,1-1.2-.92,36.3,36.3,0,0,1-4.67-5.24A49.67,49.67,0,0,1,40.82,116c-.43-.81-.9-1.6-1.31-2.43-.53-1.06-1-2.15-1.52-3.23-.28-.6-.53-1.22-.78-1.84-.19-.46-.38-.93-.56-1.4a2.51,2.51,0,0,1-.18-.59,3,3,0,0,0-.31-1,3.55,3.55,0,0,1-.22-.65c-.08-.26-.12-.54-.22-.8a8.18,8.18,0,0,1-.51-2.06,7.86,7.86,0,0,0-.21-.8,8.52,8.52,0,0,1-.23-1,9.34,9.34,0,0,0-.44-2A5.54,5.54,0,0,1,34,96.56a6.72,6.72,0,0,0-.29-1.83,4.94,4.94,0,0,1-.17-1c-.13-.95-.2-1.92-.4-2.86a11.36,11.36,0,0,1-.26-2.39,13.83,13.83,0,0,0,0-1.58,26.77,26.77,0,0,1,0-4.2c0-.67.1-1.33.09-2a4.78,4.78,0,0,1,.22-1.36c.13-.44.25-.88.36-1.33a3.59,3.59,0,0,1,.42-1.5c.13-.17,0-.44-.25-.47A2.15,2.15,0,0,0,33,76a3.78,3.78,0,0,1-1.76-.2,9.94,9.94,0,0,0-1.33-.33,10.14,10.14,0,0,0-2.27-.11,4.08,4.08,0,0,1-1.42-.24,3.17,3.17,0,0,0-.86-.2c-1,0-2-.07-3-.1l-1.1,0a4.44,4.44,0,0,1-1.68-.36,1.74,1.74,0,0,0-.46-.13c-.07,0-.15,0-.23.06m36.33,9a.93.93,0,0,0-.11.67c0,.32,0,.64,0,1,0,.6,0,1.2,0,1.79,0,.78.06,1.56.1,2.34a1.74,1.74,0,0,0,.13.6,3.63,3.63,0,0,1,.25,1.49,5.62,5.62,0,0,0,.4,2.29,4.06,4.06,0,0,1,.3,1.54,2.49,2.49,0,0,0,.24,1.07,3,3,0,0,1,.29.91,4.61,4.61,0,0,0,.34,1.26,2.26,2.26,0,0,1,.17.52,20.32,20.32,0,0,0,.82,2.54c.36,1.09.81,2.14,1.24,3.21.33.85.75,1.67,1.16,2.49a42,42,0,0,0,2.62,4.61,28.82,28.82,0,0,0,2.56,3.58c.23.25.42.54.63.81s.28.37.43.54c.66.77,1.33,1.53,2,2.28.47.54.94,1.07,1.42,1.59A26.13,26.13,0,0,0,72.93,123c1.32,1.07,2.63,2.16,3.94,3.23l.28.2c.86.53,1.71,1.07,2.58,1.58a2,2,0,0,0,1.6.25,14,14,0,0,0,2-.54,4.1,4.1,0,0,1,.53-.14,2.91,2.91,0,0,0,.66-.17c.88-.41,1.86-.52,2.72-1a3.57,3.57,0,0,1,.66-.18,2.74,2.74,0,0,0,.46-.15.44.44,0,0,0,.21-.53.61.61,0,0,0-.15-.3,2,2,0,0,1-.53-1,1.4,1.4,0,0,0-.2-.43,1.7,1.7,0,0,1-.26-.85,1.8,1.8,0,0,0-.28-.9,2.57,2.57,0,0,1-.41-1.23,1.48,1.48,0,0,0-.16-.59,2.46,2.46,0,0,1-.31-.91,2.32,2.32,0,0,0-.19-.58,4.89,4.89,0,0,1-.55-1.48.47.47,0,0,0-.11-.25A4.33,4.33,0,0,1,85,115.9c-.24-.67-.57-1.3-.8-2-.08-.25-.24-.49-.32-.75a4.11,4.11,0,0,0-.25-.57c-.15-.31-.31-.61-.46-.92s-.35-.8-.56-1.18c-.35-.64-.73-1.27-1.1-1.9l-2-3.29c-.35-.57-.71-1.13-1.07-1.69-.6-.89-1.16-1.82-1.82-2.67-1-1.25-2-2.46-3-3.65A34.87,34.87,0,0,0,69.05,93l-.59-.47c-1.12-.92-2.21-1.87-3.39-2.71s-2.64-1.91-4-2.81c-.4-.26-.79-.54-1.2-.8l-2.48-1.61c-.6-.38-1.22-.73-1.83-1.1a1.94,1.94,0,0,0-.34-.11m10.64,47a12.76,12.76,0,0,0,3.43-.26,1.2,1.2,0,0,1,.2,0l4.12-.3a5.86,5.86,0,0,0,1.56-.26,1.69,1.69,0,0,0,.47-.27.3.3,0,0,0,0-.43,1,1,0,0,0-.17-.1,11.53,11.53,0,0,1-2.4-1.47c-.4-.31-.82-.6-1.23-.89-.24-.18-.49-.34-.72-.53-.75-.61-1.5-1.21-2.23-1.84a34.44,34.44,0,0,1-4.11-4.17c-1.1-1.36-2.18-2.73-3.26-4.1-.36-.47-.68-1-1-1.47l-.29-.46a19,19,0,0,1-1.56-2.6c-.26-.53-.54-1.06-.82-1.59-.56-1-.95-2.13-1.43-3.2-.14-.89-.78-1.61-.87-2.52a.21.21,0,0,0,0-.07,3.93,3.93,0,0,1-.42-1.16c-.09-.35-.25-.69-.36-1a5.48,5.48,0,0,1-.23-.86,3,3,0,0,0-.28-1.06,2.16,2.16,0,0,1-.23-1,4.44,4.44,0,0,0-.36-1.6,5.3,5.3,0,0,1-.38-1.88,8.32,8.32,0,0,0-.31-2.32,2.44,2.44,0,0,1-.1-.81c0-2.12,0-4.23,0-6.34a3,3,0,0,1,.26-1.21,2.45,2.45,0,0,0,.2-.65,6.32,6.32,0,0,1,.2-1.43c.06-.18-.06-.32-.27-.42L52,81.52l-.18-.09a24.51,24.51,0,0,1-2.51-1.11.64.64,0,0,0-.26-.1A3.59,3.59,0,0,1,48,79.76a11,11,0,0,0-1.12-.32c-.18-.06-.33-.16-.5-.23a2.6,2.6,0,0,0-.59-.21,2.39,2.39,0,0,1-1.15-.39.83.83,0,0,0-.46-.12,3.43,3.43,0,0,1-1.51-.43,1.92,1.92,0,0,0-.93-.24,2.9,2.9,0,0,1-1.32-.33,1.68,1.68,0,0,0-.73-.19,4.46,4.46,0,0,1-2.18-.51,2,2,0,0,0-.6-.16.34.34,0,0,0-.4.29,5.09,5.09,0,0,0,0,.55,30.65,30.65,0,0,1-.27,4.06,12,12,0,0,0,0,3.43c.05.43.1.87.14,1.3.13,1.51,0,3,.21,4.54A5.61,5.61,0,0,0,36.82,92a6.36,6.36,0,0,1,.33,1.89A5.68,5.68,0,0,0,37.27,95c.26,1,.4,2,.57,3a24.33,24.33,0,0,0,.65,2.68,10.66,10.66,0,0,1,.43,1.66,3.16,3.16,0,0,0,.17.52l.47,1.37c0,.13.07.27.12.39.31.74.65,1.47.94,2.22a23.76,23.76,0,0,0,1.14,2.65c.67,1.3,1.31,2.63,2,3.9s1.36,2.24,2.09,3.32a42.06,42.06,0,0,0,3.16,4A33.57,33.57,0,0,0,56,126.9c1.33.87,2.64,1.76,4,2.66a2.43,2.43,0,0,0,1.14.42c.61.06,1.23.14,1.84.26a8.87,8.87,0,0,0,1.78.17h1.17m-9-87.78h0v3.86c0,.17,0,.33,0,.49a5.46,5.46,0,0,0,.35,2,4,4,0,0,1,.27,1.14,6.28,6.28,0,0,0,.42,1.29,7.64,7.64,0,0,0,.41,1.31,2.81,2.81,0,0,1,.4,1.09,1,1,0,0,0,.15.39c.33.65.66,1.3,1,2s.6,1.13.92,1.69.51.82.78,1.22c.79,1.21,1.57,2.43,2.46,3.57.23.29.44.59.65.89a14.88,14.88,0,0,0,2,2.31c.56.55,1.11,1.09,1.66,1.65a4.87,4.87,0,0,0,1.63,1.13.57.57,0,0,0,.59,0,2.32,2.32,0,0,1,1.39-.31l1.72,0a2,2,0,0,0,.94-.2,3.06,3.06,0,0,1,1.4-.29c.83,0,1.65-.06,2.48-.06a3.19,3.19,0,0,0,1.46-.33A3.73,3.73,0,0,1,81.52,67h.89a9.08,9.08,0,0,0,3.07-.31c.21-.08.45-.09.66-.18a.54.54,0,0,0,.24-.31.31.31,0,0,0-.18-.34,1,1,0,0,1-.18-.1,23.28,23.28,0,0,1-2.14-1.49,59.49,59.49,0,0,1-4.66-4.6,6.29,6.29,0,0,1-.67-.87c-.52-.79-1-1.59-1.54-2.37a42.42,42.42,0,0,1-2.1-3.79,14.36,14.36,0,0,1-.62-1.45c-.12-.27-.21-.56-.35-.82a3.49,3.49,0,0,1-.37-1.1,1.72,1.72,0,0,0-.24-.64,1.7,1.7,0,0,1-.24-.85,5,5,0,0,0-.41-1.87,3.33,3.33,0,0,1-.26-1.28V40.86a2.9,2.9,0,0,1,.39-1.52A1.56,1.56,0,0,0,73,39a.59.59,0,0,0-.17-.69,4.62,4.62,0,0,0-.73-.52c-.65-.37-1.33-.72-2-1.07s-1-.53-1.54-.78-1.31-.55-1.93-.9a17.31,17.31,0,0,1-1.82-.8.42.42,0,0,0-.13,0,2.92,2.92,0,0,1-1.14-.46,1.42,1.42,0,0,0-.77-.26,1.1,1.1,0,0,1-.65-.21,2.19,2.19,0,0,0-1-.35,2.57,2.57,0,0,1-.86-.24,3.37,3.37,0,0,0-1.38-.36A1.94,1.94,0,0,1,58,32a2.12,2.12,0,0,0-1.38-.36,2.47,2.47,0,0,1-1.2-.22,4.42,4.42,0,0,0-1.68-.34h-.55a3.8,3.8,0,0,1-1.49-.25,2.1,2.1,0,0,0-.6-.14c-.89-.06-1.79-.11-2.68-.14-.69,0-1.38,0-2.07,0-1.85-.18-3.71-.22-5.57-.26a2.75,2.75,0,0,0-.41,0,.78.78,0,0,0-.76.89c0,1.3,0,2.61,0,3.92,0,1.1,0,2.21.07,3.31a3.74,3.74,0,0,0,.18.87,4.49,4.49,0,0,1,.28,1.62,2.55,2.55,0,0,0,.2,1.15,6.52,6.52,0,0,1,.41,1.59,3.73,3.73,0,0,0,.27.92,2.76,2.76,0,0,1,.27,1.13,1.8,1.8,0,0,0,.23.85A4.55,4.55,0,0,1,42,48.06a1.2,1.2,0,0,0,.11.47A4,4,0,0,1,42.53,50a2,2,0,0,0,.14.39c.11.32.23.64.34,1a4.14,4.14,0,0,0,.49,1.28.48.48,0,0,1,.09.26,4,4,0,0,0,.49,1.49,3.08,3.08,0,0,1,.21.65,2.71,2.71,0,0,0,.35.82,4,4,0,0,1,.24.64,1.27,1.27,0,0,0,.12.39c.43.6.46,1.4.94,2A.25.25,0,0,1,46,59a2.79,2.79,0,0,0,.43,1c.27.48.47,1,.72,1.48a6.56,6.56,0,0,0,.49.9c.11.14.18.32.28.47.2.33.4.67.63,1,.36.5.77,1,1.12,1.49a2.71,2.71,0,0,0,1.88,1.27,2,2,0,0,1,.64.22A1.6,1.6,0,0,0,53,67a2.26,2.26,0,0,1,1.11.31,2.63,2.63,0,0,0,1.24.4.71.71,0,0,1,.2,0,6.19,6.19,0,0,0,1.73.63c.61.47,1.43.48,2,.94a.31.31,0,0,0,.13,0,3.23,3.23,0,0,1,1.27.52,1.85,1.85,0,0,0,.44.18,2,2,0,0,1,.66.35,1,1,0,0,0,1.38,0A1.7,1.7,0,0,1,64,70a6.39,6.39,0,0,0,1.58-.64c.22-.09.19-.37,0-.49a1,1,0,0,0-.25-.11,3.06,3.06,0,0,1-1-.64,11,11,0,0,1-1.81-2c-.33-.49-.7-1-1-1.46s-.71-1.07-1-1.63c-.52-.95-1-1.91-1.51-2.86-.27-.51-.54-1-.8-1.52s-.61-1.23-.91-1.85-.52-1.17-.78-1.75a.65.65,0,0,1,0-.2,2.49,2.49,0,0,0-.39-1,2.38,2.38,0,0,1-.35-1,1.13,1.13,0,0,0-.16-.51,2.26,2.26,0,0,1-.31-1,6.57,6.57,0,0,0-.32-1.41,4.54,4.54,0,0,1-.31-1.74c0-2,0-4.09,0-6.14,0-.36,0-.73,0-1.1a3.86,3.86,0,0,1,.27-1.34,3.47,3.47,0,0,0,.25-.93,15.67,15.67,0,0,0,.14-2.47c0-.28,0-.56,0-.83a1.35,1.35,0,0,1,.2-.79,2,2,0,0,0,.3-1,1.69,1.69,0,0,1,1-1.18l.13,0A1.34,1.34,0,0,1,58,33.61a1.18,1.18,0,0,1-.22.5,1.37,1.37,0,0,0-.26,1,3.35,3.35,0,0,1-.35,1.81,2.22,2.22,0,0,0-.21.72c-.06.59-.1,1.19-.11,1.78,0,1.08,0,2.16,0,3.24M36.43,22.73H23.53a1.28,1.28,0,0,0-1.08.46c-.54.63-1.13,1.21-1.68,1.83-.41.46-.81.94-1.18,1.43A11.83,11.83,0,0,1,18.26,28a.86.86,0,0,0-.18.2c0,.08-.1.2-.07.25a.45.45,0,0,0,.27.17,1.14,1.14,0,0,0,.41,0c.45-.09.9-.17,1.34-.29a4,4,0,0,1,1.29-.16,8.64,8.64,0,0,0,2.27-.11,5.08,5.08,0,0,1,.68,0,8.41,8.41,0,0,0,2.18-.28,6.57,6.57,0,0,1,1.71-.21l3.38,0a22.25,22.25,0,0,0,3.16-.1,3.85,3.85,0,0,1,.48,0l4,0c2.5,0,5,.14,7.51.11h.21a10.92,10.92,0,0,1,1.14.22,5.25,5.25,0,0,0,1.35.24,5.36,5.36,0,0,1,.69.06,7,7,0,0,0,1.58.09,2.74,2.74,0,0,1,1.41.24,3.11,3.11,0,0,0,1.27.26h.83a2.21,2.21,0,0,1,1.07.24,4,4,0,0,0,1.92.46,1.58,1.58,0,0,1,.79.21,2.83,2.83,0,0,0,1.24.36,1.62,1.62,0,0,1,.72.2,4.06,4.06,0,0,0,1.3.43,1.68,1.68,0,0,1,.76.29,1.15,1.15,0,0,0,.71.24,1.49,1.49,0,0,1,.77.27,3.12,3.12,0,0,0,1,.41A1.82,1.82,0,0,1,66,32a2.24,2.24,0,0,0,.81.35,1.43,1.43,0,0,1,.51.2c.57.41,1.31.45,1.86.88.06.06.18,0,.26.08a5.65,5.65,0,0,1,.57.23c.17.08.32.19.48.27.84.42,1.68.83,2.52,1.26.32.17.61.42,1,.56a16.09,16.09,0,0,1,2.2,1.27c.83.54,1.67,1,2.47,1.63a26.49,26.49,0,0,1,2.24,1.71c.14.12.29.22.44.33a19.65,19.65,0,0,1,2.4,2,27.83,27.83,0,0,1,3.38,3.82,7.38,7.38,0,0,0,.54.71,27.23,27.23,0,0,1,2.21,3.24c.27.45.5.92.77,1.38a23.12,23.12,0,0,1,1.74,3.35,1.78,1.78,0,0,0,.17.3,4.44,4.44,0,0,1,.24.49,13.13,13.13,0,0,1,.79,1.9.46.46,0,0,0,.1.18,1.73,1.73,0,0,1,.3.68,2.25,2.25,0,0,0,.22.58c.42.67.47,1.49.93,2.14a1,1,0,0,1,.08.26c.13.34.25.69.4,1a2.44,2.44,0,0,1,.3.91,1.13,1.13,0,0,0,.23.63,1.37,1.37,0,0,1,.23.78c0,.66.21.8.85.81h.21c1.49,0,3,0,4.47,0a5.57,5.57,0,0,0,1.77-.24,5,5,0,0,1,1.63-.26h.82l7.45-.06h1.31c1,0,2.11,0,3.16,0a1.62,1.62,0,0,1,1.23.31.39.39,0,0,0,.45.07,11.53,11.53,0,0,0,1.11-.56c.33-.2.69-.35,1-.53a9.51,9.51,0,0,1,1.52-.62,1.44,1.44,0,0,0,.42-.23,1.44,1.44,0,0,1,.77-.25,1.63,1.63,0,0,0,.9-.31,1.44,1.44,0,0,1,.84-.26,1.75,1.75,0,0,0,1-.32,2,2,0,0,1,1.23-.36,3.18,3.18,0,0,0,.62-.06.83.83,0,0,0,.72-.94,1.49,1.49,0,0,0,0-.21c0-.57-.07-1.14-.07-1.71a11.07,11.07,0,0,0-.18-2c-.1-.52-.16-1-.21-1.57a11.26,11.26,0,0,0-.42-2.51,10.74,10.74,0,0,1-.26-1.28c-.1-.45-.19-.9-.29-1.34a7.27,7.27,0,0,1-.2-.73,10.44,10.44,0,0,0-.56-2.13c-.06-.17-.11-.35-.16-.53-.19-.71-.36-1.42-.59-2.12s-.57-1.44-.78-2.2a17.73,17.73,0,0,0-.84-2l-.66-1.51c-.31-.69-.6-1.39-.93-2.07s-.73-1.43-1.12-2.13C122,34.09,121.4,33,120.74,32c-.87-1.35-1.8-2.67-2.75-4-.78-1.07-1.62-2.11-2.46-3.14-.46-.56-.74-.56-1.24,0A18,18,0,0,0,113,26.16a6.77,6.77,0,0,0-1.7,3.17.62.62,0,0,1-.07.19,4.39,4.39,0,0,1-1.7,2,6.37,6.37,0,0,1-1.35.69,17.31,17.31,0,0,0-1.82.8c-.48.21-.94.47-1.4.72-.3.17-.58.37-.87.55A10,10,0,0,0,101,37.16a17.57,17.57,0,0,0-1,1.72c-.28.53-.51,1.08-.77,1.61a14.52,14.52,0,0,0-1,2.57,4.07,4.07,0,0,1-.18.44,3.16,3.16,0,0,0-.29.62c-.17.65-.48,1.24-.66,1.88a3.15,3.15,0,0,1-1.29,1.64.84.84,0,0,1-.37.17,2.63,2.63,0,0,1-2.22-.4,11,11,0,0,1-2.07-2.3c-.81-1.17-1.55-2.38-2.41-3.52-1.16-1.51-2.36-3-3.57-4.46A27.05,27.05,0,0,0,80,32.33c-.86-.61-1.7-1.25-2.59-1.82A33.45,33.45,0,0,0,73,28.13a7,7,0,0,0-1.69-.73.56.56,0,0,1-.24-.13,2.64,2.64,0,0,0-.75-.33,3.56,3.56,0,0,1-.7-.29,3.88,3.88,0,0,0-1.23-.41c-.45-.08-.81-.44-1.28-.49a.86.86,0,0,1-.27-.05,4.23,4.23,0,0,1-.78-.27,2.74,2.74,0,0,0-1.25-.33,2.44,2.44,0,0,1-1-.27A2.34,2.34,0,0,0,63,24.6a7.31,7.31,0,0,1-1.55-.29,6.91,6.91,0,0,0-2.29-.41,4.34,4.34,0,0,1-1.08-.16c-.44-.14-.89-.23-1.33-.34a1,1,0,0,0-1.27.37c-.15.23-.39.22-.62.08a2.78,2.78,0,0,0-.27-.21,3.88,3.88,0,0,0-.61-.31c-.41-.14-.83-.25-1.25-.36a2.11,2.11,0,0,0-.61-.1c-1,0-1.93-.09-2.89-.11-2.32,0-4.64,0-7-.13a40.65,40.65,0,0,0-5.84.1m93.42,45.46h.05l.06-2.76c0-.3,0-.6,0-.9a.58.58,0,0,0-.77-.55,1,1,0,0,0-.41.23,1.47,1.47,0,0,1-1,.43,1.76,1.76,0,0,0-.7.27,2.22,2.22,0,0,1-1,.38.55.55,0,0,0-.33.09,10,10,0,0,1-1.35.67,26.15,26.15,0,0,0-2.84,1.68,16.22,16.22,0,0,0-1.84,1.44c-.9.9-1.8,1.79-2.67,2.69a8,8,0,0,0-.81,1q-.8,1.17-1.53,2.37a7.89,7.89,0,0,0-.83,1.57,11.05,11.05,0,0,1-.86,1.88A3.91,3.91,0,0,1,109.4,81a3.37,3.37,0,0,0-1.22.21,1.65,1.65,0,0,1-.54.09,4.49,4.49,0,0,0-1.41.29,8,8,0,0,1-1.64.51,1.24,1.24,0,0,0-.32.12l-2,1a15,15,0,0,0-2.91,2,25.37,25.37,0,0,0-4,4.32q-1.4,1.92-2.63,4A6.92,6.92,0,0,1,91.49,95a2.8,2.8,0,0,1-2.61.72,1.57,1.57,0,0,1-.5-.21,3.77,3.77,0,0,1-1.31-1.2,17.94,17.94,0,0,0-1.55-1.93c-1-1-1.85-2-2.79-3A26.85,26.85,0,0,0,80.32,87c-.34-.28-.66-.57-1-.85-.65-.55-1.28-1.12-2-1.62s-1.24-1-1.83-1.46c-.4-.35-.82-.67-1.23-1l-1.77-1.42c-.42-.33-.82-.66-1.24-1s-1-.77-1.55-1.16-1.06-.8-1.58-1.22a31,31,0,0,0-2.78-1.9c-.58-.37-1.16-.74-1.77-1.07-.92-.51-1.88-1-2.8-1.46-.39-.21-.81-.33-1.19-.53a11.71,11.71,0,0,0-1.24-.59,12.83,12.83,0,0,0-1.33-.55,1.8,1.8,0,0,1-.38-.16,3.13,3.13,0,0,0-1.22-.43,3.14,3.14,0,0,1-.57-.24,2.7,2.7,0,0,0-.7-.26,2.6,2.6,0,0,1-1-.33A2.69,2.69,0,0,0,52,69.36a1.3,1.3,0,0,1-.71-.23,1.2,1.2,0,0,0-.78-.23,2.62,2.62,0,0,1-1.32-.31,3.13,3.13,0,0,0-1.67-.35,1.81,1.81,0,0,1-.94-.17,3.92,3.92,0,0,0-1.94-.37,4.7,4.7,0,0,1-1.89-.31,3.21,3.21,0,0,0-.79-.22A16.68,16.68,0,0,0,39.59,67a33.44,33.44,0,0,1-5.29-.27,9.93,9.93,0,0,0-1.44-.08c-3.79,0-7.59,0-11.38,0-.59,0-1.19,0-1.79.07-1.1.06-2.2.17-3.3.2-2.25.06-4.5.08-6.75.11A16.24,16.24,0,0,0,7,67.09a2.06,2.06,0,0,1-.35,0l-1.23,0c-.49,0-.68.11-.73.6,0,.18,0,.36,0,.55a11.89,11.89,0,0,1,0,1.79,1.33,1.33,0,0,0,.64,1.46.94.94,0,0,1,.1.1.73.73,0,0,0,.69.21c.34,0,.68,0,1,0,3.79,0,7.58,0,11.37.07h1A7.79,7.79,0,0,1,22,72.2a5.06,5.06,0,0,0,1.28.23c1.06,0,2.12.06,3.17.07a4.07,4.07,0,0,1,1.62.28,2.93,2.93,0,0,0,1.14.22l2.07.06a3.27,3.27,0,0,1,1.34.26,7,7,0,0,0,.92.27,7.07,7.07,0,0,0,1.78.16,1.94,1.94,0,0,1,.87.11,4,4,0,0,0,1.82.33,2.65,2.65,0,0,1,1.33.3,2.87,2.87,0,0,0,1.65.37,1.91,1.91,0,0,1,1.12.28,1.78,1.78,0,0,0,1,.26,2.91,2.91,0,0,1,1.2.3,4,4,0,0,0,.83.32,3.34,3.34,0,0,1,1.43.46.42.42,0,0,0,.2,0,4.47,4.47,0,0,1,1.55.5,14.4,14.4,0,0,1,1.78.72,12.28,12.28,0,0,1,2.16.89,13.73,13.73,0,0,1,1.84.92c.87.45,1.76.88,2.61,1.38q2.23,1.31,4.42,2.67c.84.51,1.66,1.07,2.48,1.61,1.1.71,2.18,1.45,3.22,2.24s2,1.37,2.87,2.14c1.24,1.06,2.52,2.06,3.69,3.21a49.9,49.9,0,0,1,5.18,5.7c.28.37.61.7.87,1.08q1.11,1.69,2.19,3.42c.44.69.86,1.4,1.28,2.12s1,1.62,1.38,2.46c.51,1,1,2,1.5,3,.58,1.2,1,2.46,1.56,3.67a5.7,5.7,0,0,0,.62,1.88,5.88,5.88,0,0,0,.59,1.82,2,2,0,0,1,.09.33,2.4,2.4,0,0,0,.39,1.16.77.77,0,0,1,.1.4,9.35,9.35,0,0,0,.52,2.27,4.2,4.2,0,0,1-.15,3.15.19.19,0,0,0,0,.18.28.28,0,0,0,.24.07c.23-.08.45-.23.69-.29a3.35,3.35,0,0,0,1-.43,2.19,2.19,0,0,1,.44-.2,13.16,13.16,0,0,1,1.63-.71.54.54,0,0,0,.18-.1l3.15-1.7c.78-.43,1.57-.85,2.33-1.32,1-.65,2-1.33,3-2,1.81-1.23,3.5-2.61,5.18-4a59,59,0,0,0,6.44-6.31c1.12-1.25,2.14-2.58,3.18-3.9.56-.7,1.08-1.43,1.58-2.17q1-1.48,2-3c.56-.92,1.11-1.85,1.63-2.79s1-1.88,1.42-2.83a14.12,14.12,0,0,0,1.12-2.51,2.1,2.1,0,0,1,.18-.37,4,4,0,0,0,.25-.56,14.68,14.68,0,0,0,.78-2.13,1.76,1.76,0,0,1,.17-.37,4.22,4.22,0,0,0,.18-.45,24.36,24.36,0,0,0,.84-2.76.77.77,0,0,1,.08-.19c.12-.39.25-.79.36-1.18s.26-.93.39-1.4l.21-.86c.13-.52.26-1,.38-1.54.07-.34.13-.68.19-1,.1-.51.16-1,.31-1.55a9.66,9.66,0,0,0,.39-2.51,9.63,9.63,0,0,1,.22-1.77,7.53,7.53,0,0,0,.16-1.16c0-1.08.05-2.16.07-3.24m4.57-5.48c0,1,.11,2.07.05,3.1-.09,1.62-.14,3.25-.17,4.88,0,.88-.12,1.75-.2,2.62a2.54,2.54,0,0,1-.07.47,17.2,17.2,0,0,0-.51,2.85c-.07.45-.19.89-.27,1.34s-.19,1-.29,1.49c-.06.31-.13.63-.21.94l-.48,1.79a2.14,2.14,0,0,1-.06.27,11.67,11.67,0,0,0-.51,1.93,3.43,3.43,0,0,1-.16.45c-.08.19-.17.38-.24.58-.27.83-.51,1.66-.79,2.48-.22.65-.47,1.3-.74,1.93-.37.89-.75,1.78-1.15,2.65s-.94,1.94-1.42,2.9-1,2-1.51,2.93c-.45.81-.94,1.58-1.41,2.37l-.72,1.17a73.92,73.92,0,0,1-4.42,6.24c-.83,1-1.72,2-2.6,3a60,60,0,0,1-6.64,6.5c-1,.81-1.93,1.64-2.93,2.4a55.09,55.09,0,0,1-4.74,3.31c-.81.5-1.6,1-2.41,1.48s-1.6,1-2.44,1.42a32.42,32.42,0,0,1-3,1.43c-.64.25-1.25.58-1.87.88a2.19,2.19,0,0,1-.3.16,16.59,16.59,0,0,0-2.81,1.11c-.17.07-.35.09-.53.15-.79.29-1.59.56-2.4.82a7.47,7.47,0,0,1-1,.35c-.3.05-.39.19-.29.5a1,1,0,0,1-.2,1,.5.5,0,0,1-.66.19.61.61,0,0,1-.18-.09,3.35,3.35,0,0,0-1.85-.46,7.14,7.14,0,0,0-2.39.25,27,27,0,0,1-3.11.58,11.63,11.63,0,0,0-1.14.25,4.07,4.07,0,0,1-1.15.19l-3.37.14c-.27,0-.55.07-.82.11-.43,0-.86.13-1.3.16a1.48,1.48,0,0,0-1,.37,1.71,1.71,0,0,1-1.33.45c-.73,0-1.46-.06-2.2-.13a1.49,1.49,0,0,1-.56-.22,2.7,2.7,0,0,0-1.24-.39c-.43,0-.85-.15-1.28-.22s-.64-.11-1-.13l-3.38-.15a3.19,3.19,0,0,1-.74-.13,16.13,16.13,0,0,0-2.83-.57c-.39-.06-.76-.15-1.15-.23-.65-.13-1.31-.23-1.95-.39s-1.27-.41-1.91-.57a7.72,7.72,0,0,1-1.33-.37,2.31,2.31,0,0,0-.47-.11,3.33,3.33,0,0,1-1-.31,3.9,3.9,0,0,0-.64-.26,5.49,5.49,0,0,1-1.48-.55.29.29,0,0,0-.13-.05,10.87,10.87,0,0,1-2.14-.75c-.64-.22-1.26-.53-1.89-.82s-1.33-.62-2-.94l-1.66-.82A37.74,37.74,0,0,1,32,124.54c-1-.63-2-1.21-3-1.9-1.63-1.18-3.28-2.36-4.82-3.66a81.51,81.51,0,0,1-7.1-6.93c-.68-.75-1.3-1.55-1.92-2.34-1-1.26-2-2.52-2.89-3.87-1.1-1.67-2.22-3.32-3.15-5.09-.51-1-1-2-1.51-2.94-.27-.53-.55-1.06-.79-1.6-.5-1.11-1-2.23-1.44-3.36-.33-.82-.58-1.69-.89-2.52A8,8,0,0,1,4,88.62c-.46-.86-.51-1.86-.9-2.75A1.43,1.43,0,0,1,3,85.41a8.67,8.67,0,0,0-.49-2.07,3.56,3.56,0,0,1-.1-.47,16.6,16.6,0,0,0-.49-2.43,4.39,4.39,0,0,1-.16-1c-.07-.66-.12-1.33-.19-2a3.87,3.87,0,0,0-.12-.68,9.48,9.48,0,0,1-.26-2.25c0-.46-.08-.91-.12-1.37S1,72.38,1,72c0-1.4,0-2.8.05-4.2a1.61,1.61,0,0,0-.57-1.13c-.12-.14-.28-.25-.4-.38a.24.24,0,0,1,.09-.4,2.38,2.38,0,0,1,.45-.15A.57.57,0,0,0,1,65.19a.29.29,0,0,0,0-.13c-.05-1.27.29-2.51.25-3.78a2.48,2.48,0,0,1,.07-.61,23.06,23.06,0,0,0,.47-3.42,6,6,0,0,1,.11-.74c.15-.74.32-1.48.48-2.22a11.15,11.15,0,0,1,.28-1.14A4.72,4.72,0,0,0,3,51.87a2.62,2.62,0,0,1,.24-1,5.14,5.14,0,0,0,.33-.9A5.63,5.63,0,0,1,4,48.41a.47.47,0,0,0,.06-.2,6.18,6.18,0,0,1,.57-1.83,5.06,5.06,0,0,0,.21-.66c.08-.23.17-.47.25-.71l.21-.58c0-.13.06-.27.11-.4.25-.61.5-1.23.77-1.84s.67-1.51,1-2.25A21,21,0,0,1,8.16,38a11.54,11.54,0,0,0,.6-1.16c.82-1.7,1.83-3.28,2.8-4.9a8.19,8.19,0,0,1,.47-.68,5.55,5.55,0,0,0,.56-.94,5.43,5.43,0,0,1,.61-.92c.31-.42.64-.83,1-1.25s.43-.59.66-.88c.85-1.06,1.7-2.11,2.56-3.16.29-.35.62-.68.93-1a3.47,3.47,0,0,0,.31-.36.38.38,0,0,0-.1-.55.77.77,0,0,0-.18-.1.76.76,0,0,1-.45-.49,1.51,1.51,0,0,1,.08-.94.54.54,0,0,1,.44-.3,4.51,4.51,0,0,1,1.51-.1,1.56,1.56,0,0,0,1.38-.45l1.37-1.27c.51-.46,1-.9,1.55-1.36l1.18-1.06c.38-.33.76-.66,1.16-1,.66-.52,1.34-1,2-1.55.23-.18.48-.35.72-.52l1.18-.84a2.78,2.78,0,0,1,.27-.21c.91-.59,1.81-1.17,2.73-1.74s1.84-1.12,2.77-1.67c.45-.26.93-.5,1.39-.75l.84-.47c.06,0,.11-.09.17-.11a10.08,10.08,0,0,0,1.5-.67c.28-.11.54-.27.8-.4l.5-.22.76-.32.57-.23a7.28,7.28,0,0,0,.77-.31,2.44,2.44,0,0,1,1.08-.4,1.51,1.51,0,0,0,.44-.18,8.58,8.58,0,0,1,.83-.35,5.38,5.38,0,0,0,1.21-.46,1.65,1.65,0,0,1,.67-.16,1.68,1.68,0,0,0,.84-.28,1.82,1.82,0,0,1,.9-.3,2.58,2.58,0,0,0,1.24-.38,1.9,1.9,0,0,1,1-.25A2.61,2.61,0,0,0,53,2.07a2,2,0,0,1,.72-.21,6.26,6.26,0,0,0,2.21-.48,2.24,2.24,0,0,1,.94-.15A6.07,6.07,0,0,0,59.36.79,1.91,1.91,0,0,1,60,.65c1.1-.05,2.2-.1,3.3-.12A4.43,4.43,0,0,0,64.69.34,6.66,6.66,0,0,1,66.86,0H71.2a7.24,7.24,0,0,1,2.17.34,4.44,4.44,0,0,0,1,.17c.82,0,1.65,0,2.48.07.32,0,.64,0,1,.06a2.13,2.13,0,0,1,.66.16,4.28,4.28,0,0,0,2,.38,3.25,3.25,0,0,1,1.59.33,2.59,2.59,0,0,0,1,.21,2.94,2.94,0,0,1,1.62.49,1.19,1.19,0,0,0,.65.16,1.66,1.66,0,0,1,1.28.4.64.64,0,0,0,.88,0,2.55,2.55,0,0,1,2.31-.27,14.4,14.4,0,0,1,2.55.85c.49.23,1,.37,1.55.57.72.28,1.45.57,2.15.9.87.41,1.72.86,2.58,1.31,2,1,3.94,2.26,5.89,3.43.49.3,1,.63,1.42,1,1.19.84,2.35,1.69,3.5,2.57a63.29,63.29,0,0,1,7.9,7.27,47.06,47.06,0,0,1,3.25,3.93c.82,1.08,1.67,2.14,2.41,3.27s1.61,2.46,2.36,3.72,1.51,2.67,2.17,4.07c.31.66.68,1.3,1,2,.44,1,.94,2,1.31,3.1.16.43.35.85.53,1.27a.67.67,0,0,1,.06.12,13.32,13.32,0,0,0,.65,2,1.39,1.39,0,0,0,.1.33,23.34,23.34,0,0,1,.9,3c.29.92.52,1.86.76,2.79a6.17,6.17,0,0,1,.12.75,9.84,9.84,0,0,0,.22,1.08,9,9,0,0,1,.3,1.55,16.33,16.33,0,0,0,.58,3.18,2,2,0,0,1,.06.34c.07.89.15,1.78.19,2.68,0,1.05,0,2.11,0,3.17h.07"></path></g></g></svg>